<svg aria-hidden="true" style="position: absolute; width: 0; height: 0; overflow: hidden;" version="1.1" xmlns="http://www.w3.org/2000/svg" xmlns:xlink="http://www.w3.org/1999/xlink">
<defs>
<symbol id="close" viewBox="0 0 32 32">
<path d="M17.253 16l7.369-7.369c0.146-0.17 0.222-0.389 0.213-0.613s-0.101-0.436-0.26-0.594-0.37-0.251-0.594-0.26c-0.224-0.009-0.442 0.067-0.613 0.213l-7.369 7.369-7.369-7.378c-0.167-0.167-0.394-0.261-0.631-0.261s-0.464 0.094-0.631 0.261c-0.167 0.167-0.261 0.394-0.261 0.631s0.094 0.464 0.261 0.631l7.378 7.369-7.378 7.369c-0.093 0.080-0.169 0.178-0.222 0.288s-0.083 0.23-0.088 0.353 0.016 0.244 0.061 0.358c0.045 0.114 0.112 0.218 0.199 0.304s0.19 0.154 0.304 0.199 0.236 0.065 0.359 0.061c0.122-0.005 0.243-0.035 0.353-0.088s0.208-0.129 0.288-0.222l7.378-7.369 7.369 7.369c0.17 0.146 0.389 0.222 0.613 0.213s0.436-0.101 0.594-0.26 0.251-0.371 0.26-0.594c0.009-0.224-0.067-0.442-0.213-0.613l-7.369-7.369z"></path>
</symbol>
<symbol id="logo" viewBox="0 0 110 32">
<path fill="#000" style="fill: var(--color1, #000)" d="M72.207 0h26.708v23.194h-26.708v-23.194z"></path>
<path fill="#fd5103" style="fill: var(--color2, #fd5103)" d="M0.841 24.307c0-1.33 0.3-2.523 0.9-3.579 0.6-1.069 1.414-1.903 2.444-2.503 1.043-0.6 2.197-0.9 3.461-0.9 1.486 0 2.783 0.359 3.892 1.076s1.916 1.734 2.425 3.051h-2.132c-0.378-0.821-0.926-1.454-1.643-1.897-0.704-0.443-1.551-0.665-2.542-0.665-0.952 0-1.806 0.222-2.562 0.665s-1.349 1.076-1.78 1.897c-0.43 0.808-0.645 1.76-0.645 2.855 0 1.082 0.215 2.034 0.645 2.855 0.43 0.808 1.023 1.434 1.78 1.877s1.61 0.665 2.562 0.665c0.991 0 1.838-0.215 2.542-0.645 0.717-0.443 1.265-1.076 1.643-1.897h2.132c-0.508 1.304-1.317 2.314-2.425 3.031-1.108 0.704-2.405 1.056-3.892 1.056-1.265 0-2.418-0.293-3.461-0.88-1.030-0.6-1.845-1.428-2.444-2.484s-0.9-2.249-0.9-3.579zM23.182 31.268c-1.265 0-2.418-0.293-3.461-0.88-1.043-0.6-1.871-1.428-2.484-2.484-0.6-1.069-0.9-2.268-0.9-3.598s0.3-2.523 0.9-3.579c0.613-1.069 1.441-1.897 2.484-2.484 1.043-0.6 2.197-0.9 3.461-0.9 1.278 0 2.438 0.3 3.481 0.9 1.043 0.587 1.864 1.408 2.464 2.464s0.9 2.255 0.9 3.598c0 1.343-0.3 2.542-0.9 3.598s-1.421 1.884-2.464 2.484c-1.043 0.587-2.203 0.88-3.481 0.88zM23.182 29.723c0.952 0 1.806-0.222 2.562-0.665 0.769-0.443 1.369-1.076 1.799-1.897 0.443-0.821 0.665-1.773 0.665-2.855 0-1.095-0.222-2.047-0.665-2.855-0.43-0.821-1.023-1.454-1.78-1.897s-1.617-0.665-2.581-0.665c-0.965 0-1.825 0.222-2.581 0.665s-1.356 1.076-1.799 1.897c-0.43 0.808-0.645 1.76-0.645 2.855 0 1.082 0.215 2.034 0.645 2.855 0.443 0.821 1.043 1.454 1.799 1.897 0.769 0.443 1.63 0.665 2.581 0.665zM32.102 24.307c0-1.33 0.3-2.523 0.9-3.579 0.6-1.069 1.414-1.903 2.444-2.503 1.043-0.6 2.197-0.9 3.461-0.9 1.486 0 2.783 0.359 3.892 1.076s1.916 1.734 2.425 3.051h-2.132c-0.378-0.821-0.926-1.454-1.643-1.897-0.704-0.443-1.551-0.665-2.542-0.665-0.952 0-1.806 0.222-2.562 0.665s-1.349 1.076-1.78 1.897c-0.43 0.808-0.645 1.76-0.645 2.855 0 1.082 0.215 2.034 0.645 2.855 0.43 0.808 1.023 1.434 1.78 1.877s1.61 0.665 2.562 0.665c0.991 0 1.838-0.215 2.542-0.645 0.717-0.443 1.265-1.076 1.643-1.897h2.132c-0.508 1.304-1.317 2.314-2.425 3.031-1.108 0.704-2.405 1.056-3.892 1.056-1.265 0-2.418-0.293-3.461-0.88-1.030-0.6-1.845-1.428-2.444-2.484s-0.9-2.249-0.9-3.579zM55.656 31.131l-5.612-6.219v6.219h-1.78v-13.63h1.78v6.316l5.632-6.316h2.249l-6.18 6.825 6.238 6.805h-2.327zM68.751 17.501v1.447h-3.716v12.183h-1.78v-12.183h-3.735v-1.447h9.23zM79.39 28.1h-5.945l-1.095 3.031h-1.877l4.928-13.552h2.053l4.908 13.552h-1.877l-1.095-3.031zM78.881 26.653l-2.464-6.884-2.464 6.884h4.928zM86.681 17.501v13.63h-1.78v-13.63h1.78zM91.884 29.684h4.772v1.447h-6.551v-13.63h1.78v12.183zM103.259 31.268c-0.9 0-1.708-0.156-2.425-0.469-0.704-0.326-1.258-0.769-1.662-1.33-0.404-0.574-0.612-1.232-0.626-1.975h1.897c0.065 0.639 0.326 1.18 0.782 1.623 0.469 0.43 1.148 0.645 2.034 0.645 0.847 0 1.512-0.209 1.995-0.626 0.495-0.43 0.743-0.978 0.743-1.643 0-0.521-0.143-0.945-0.43-1.271s-0.645-0.574-1.076-0.743c-0.43-0.169-1.011-0.352-1.74-0.548-0.9-0.235-1.623-0.469-2.171-0.704-0.534-0.235-0.997-0.6-1.388-1.095-0.378-0.508-0.567-1.186-0.567-2.034 0-0.743 0.189-1.401 0.567-1.975s0.906-1.017 1.584-1.33c0.691-0.313 1.48-0.469 2.366-0.469 1.277 0 2.321 0.319 3.129 0.958 0.821 0.639 1.284 1.486 1.388 2.542h-1.956c-0.065-0.521-0.339-0.978-0.821-1.369-0.483-0.404-1.121-0.606-1.916-0.606-0.743 0-1.349 0.196-1.819 0.587-0.469 0.378-0.704 0.913-0.704 1.604 0 0.495 0.137 0.9 0.411 1.212 0.287 0.313 0.632 0.554 1.036 0.724 0.417 0.156 0.997 0.339 1.74 0.548 0.9 0.248 1.623 0.495 2.171 0.743 0.548 0.235 1.017 0.606 1.408 1.115 0.391 0.495 0.587 1.173 0.587 2.034 0 0.665-0.176 1.291-0.528 1.877s-0.874 1.063-1.564 1.428c-0.691 0.365-1.506 0.548-2.444 0.548z"></path>
<path fill="#000" style="fill: var(--color1, #000)" d="M85.561 14.759l-7.028-7.028h14.057l-7.029 7.028z"></path>
</symbol>
<symbol id="search" viewBox="0 0 32 32">
<path fill="#fd5103" style="fill: var(--color2, #fd5103); stroke: var(--color2, #fd5103)" stroke="#fd5103" stroke-linejoin="miter" stroke-linecap="butt" stroke-miterlimit="4" stroke-width="1.3333" d="M19.917 20.861l5.807 5.807 0.943-0.943-5.807-5.807 0.364-0.465c1.367-1.747 2.11-3.901 2.11-6.12l-3.417 7.527zM19.917 20.861l-0.465 0.363M19.917 20.861l-0.465 0.363M19.452 21.224c-1.747 1.366-3.901 2.109-6.119 2.109l6.119-2.109zM13.333 23.333c-5.513-0-10-4.487-10-10s4.487-10 10-10c5.513 0 10 4.487 10 10l-10 10zM22 13.333c0-4.78-3.887-8.667-8.667-8.667s-8.667 3.886-8.667 8.667c0 4.78 3.886 8.667 8.667 8.667s8.667-3.887 8.667-8.667z"></path>
</symbol>
<symbol aria-hidden="true" style="position: absolute; width: 0; height: 0; overflow: hidden;" version="1.1" xmlns="http://www.w3.org/2000/svg" xmlns:xlink="http://www.w3.org/1999/xlink">
<defs>
<symbol id="menu" viewBox="0 0 60 32">
<path d="M2 0h56c1.105 0 2 0.895 2 2s-0.895 2-2 2h-56c-1.105 0-2-0.895-2-2s0.895-2 2-2z"></path>
<path d="M2 14h56c1.105 0 2 0.895 2 2s-0.895 2-2 2h-56c-1.105 0-2-0.895-2-2s0.895-2 2-2z"></path>
<path d="M2 28h56c1.105 0 2 0.895 2 2s-0.895 2-2 2h-56c-1.105 0-2-0.895-2-2s0.895-2 2-2z"></path>
</symbol>
</defs>
</symbol>
<symbol aria-hidden="true" style="position: absolute; width: 0; height: 0; overflow: hidden;" version="1.1" xmlns="http://www.w3.org/2000/svg" xmlns:xlink="http://www.w3.org/1999/xlink">
<defs>
<symbol id="arrow-up" viewBox="0 0 32 32">
<path d="M16.724 21.24l10.62-11.146c0.177-0.186 0.276-0.433 0.276-0.69s-0.099-0.504-0.276-0.69l-0.012-0.012c-0.086-0.090-0.189-0.163-0.304-0.212s-0.238-0.075-0.363-0.075c-0.125 0-0.248 0.025-0.363 0.075s-0.218 0.121-0.304 0.212l-10 10.496-9.996-10.496c-0.086-0.090-0.189-0.163-0.304-0.212s-0.238-0.075-0.363-0.075c-0.125 0-0.248 0.025-0.363 0.075s-0.218 0.121-0.304 0.212l-0.012 0.012c-0.177 0.186-0.276 0.433-0.276 0.69s0.099 0.504 0.276 0.69l10.62 11.146c0.093 0.098 0.206 0.176 0.33 0.229s0.258 0.081 0.394 0.081c0.135 0 0.269-0.027 0.394-0.081s0.237-0.131 0.33-0.229z"></path>
</symbol>
</defs>
</symbol>
</defs>
</svg>
